<svg xmlns="http://www.w3.org/2000/svg" xmlns:xlink="http://www.w3.org/1999/xlink" version="1.1" id="Your_Icon" x="0px" y="0px" width="100px" height="100px" viewBox="0 0 100 100" enable-background="new 0 0 100 100" xml:space="preserve">
<path d="M33.731,36.12c2.218,0,4.018-1.799,4.018-4.018V19.088c0-2.218-1.799-4.018-4.018-4.018c-2.219,0-4.018,1.799-4.018,4.018  v13.015C29.714,34.321,31.513,36.12,33.731,36.12z"/>
<path d="M82.539,21.579h-9.762v8.035h5.744v14.741H21.479V29.614h5.745v-8.035h-9.763c-2.218,0-4.018,1.799-4.018,4.018v55.316  c0,2.218,1.799,4.018,4.018,4.018h65.078c2.219,0,4.018-1.8,4.018-4.018V25.596C86.557,23.378,84.758,21.579,82.539,21.579z   M78.521,60.624h-8.234V52.39h8.234V60.624z M46.13,68.66v8.141c0,0.031,0.009,0.061,0.01,0.094h-8.392V68.66H46.13z M37.749,60.624  V52.39h8.381v8.234H37.749z M54.166,76.801V68.66h8.086v8.234h-8.096C54.156,76.861,54.166,76.832,54.166,76.801z M54.166,60.624  V52.39h8.086v8.234H54.166z M29.714,52.39v8.234h-8.235V52.39H29.714z M21.479,68.66h8.235v8.234h-8.235V68.66z M70.287,76.895  V68.66h8.234v8.234H70.287z"/>
<rect x="40.239" y="21.579" width="19.525" height="8.035"/>
<path d="M66.27,36.12c2.219,0,4.018-1.799,4.018-4.018V19.088c0-2.218-1.799-4.018-4.018-4.018s-4.018,1.799-4.018,4.018v13.015  C62.252,34.321,64.051,36.12,66.27,36.12z"/>
</svg>